# xmcd CD database file
#
# Track frame offsets:
#	150
#	13657
#	25180
#	34227
#	43610
#	53453
#	68573
#	84214
#	97911
#	115363
#	129742
#	144064
#	155737
#	172375
#	185758
#	197239
#	210875
#	225328
#
# Disc length: 3170 seconds
#
# Revision: 0
# Processed by: cddbd v1.5.2PL0 Copyright (c) Steve Scherf et al.
# Submitted via: CDex 1.81
#
DISCID=e90c6012
DTITLE=Mel Torme - Mel Torme Six Classic Albums 4
DYEAR=2016
DGENRE=Jazz
TTITLE0=South Of The Border
TTITLE1=Nina
TTITLE2=Cuban Love Song
TTITLE3=Perfidia
TTITLE4=The Rhumba Jumps
TTITLE5=Vaya Con Dios
TTITLE6=Swingin' On The Moon
TTITLE7=Moonlight Cocktail
TTITLE8=I Wished On The Moon
TTITLE9=Moon Song
TTITLE10=How High The Moon
TTITLE11=Don't Let That Moon Get Away
TTITLE12=Blue Moon
TTITLE13=A Velvet Affair
TTITLE14=No Moon At All
TTITLE15=Moonlight In Vermont
TTITLE16=Oh, You Crazy Moon
TTITLE17=The Moon Was Yellow
EXTD=YEAR: 2016
EXTT0=
EXTT1=
EXTT2=
EXTT3=
EXTT4=
EXTT5=
EXTT6=
EXTT7=
EXTT8=
EXTT9=
EXTT10=
EXTT11=
EXTT12=
EXTT13=
EXTT14=
EXTT15=
EXTT16=
EXTT17=
PLAYORDER=
